<svg xmlns="http://www.w3.org/2000/svg" viewBox="0 0 100 100" width="100" height="100">
  <defs>
    <linearGradient id="goldGrad" x1="0%" y1="0%" x2="100%" y2="100%">
      <stop offset="0%" stop-color="#fdf1cd"/>
      <stop offset="35%" stop-color="#d4a342"/>
      <stop offset="70%" stop-color="#c59127"/>
      <stop offset="100%" stop-color="#88551b"/>
    </linearGradient>
    <radialGradient id="bgGrad" cx="50%" cy="50%" r="50%">
      <stop offset="0%" stop-color="#2a1f16"/>
      <stop offset="100%" stop-color="#120c08"/>
    </radialGradient>
  </defs>
  <!-- Background Circle -->
  <circle cx="50" cy="50" r="48" fill="url(#bgGrad)" stroke="url(#goldGrad)" stroke-width="2.5"/>
  <circle cx="50" cy="50" r="43" fill="none" stroke="url(#goldGrad)" stroke-width="1" stroke-dasharray="2 2" opacity="0.7"/>
  
  <!-- Royal Crown / Lotus Arch -->
  <path d="M50 20 L56 34 L68 28 L64 42 L50 38 L36 42 L32 28 L44 34 Z" fill="url(#goldGrad)"/>
  
  <!-- Royal PG Monogram / Mandap Arch Motif -->
  <path d="M35 48 C35 44 42 41 50 41 C58 41 65 44 65 48 L65 72 C65 74 63 76 60 76 L40 76 C37 76 35 74 35 72 Z" fill="none" stroke="url(#goldGrad)" stroke-width="2"/>
  <path d="M43 76 L43 55 C43 51 57 51 57 55 L57 76" fill="none" stroke="url(#goldGrad)" stroke-width="2"/>
  <circle cx="50" cy="51" r="3" fill="url(#goldGrad)"/>
  <polygon points="50,15 52,19 50,23 48,19" fill="#fff" opacity="0.9"/>
</svg>